name C:\Users\antoi\Documents\MyRepositories\upper-imu-dc\Results\main_tracking\Case_78\FLX01_linearAccelerations_groundFrame.mot
datacolumns 4
datarows 82
range 2.54000000 3.35000000
endheader 
time	radius_imu_x	radius_imu_y	radius_imu_z	
          2.54000000	          0.19369548	          9.40580997	         -0.26336196	
          2.55000000	          0.17464684	          9.43260185	         -0.28038039	
          2.56000000	          0.15521719	          9.45740964	         -0.29168568	
          2.57000000	          0.13617240	          9.48001146	         -0.29819830	
          2.58000000	          0.11825868	          9.50026063	         -0.30093937	
          2.59000000	          0.10208214	          9.51808757	         -0.30086070	
          2.60000000	          0.08801130	          9.53349223	         -0.29872603	
          2.61000000	          0.07613332	          9.54653199	         -0.29506044	
          2.62000000	          0.06628488	          9.55730654	         -0.29016631	
          2.63000000	          0.05814523	          9.56594909	         -0.28416622	
          2.64000000	          0.05135422	          9.57261479	         -0.27704178	
          2.65000000	          0.04560902	          9.57746620	         -0.26864594	
          2.66000000	          0.04071308	          9.58065781	         -0.25869507	
          2.67000000	          0.03656933	          9.58233452	         -0.24678261	
          2.68000000	          0.03314445	          9.58263944	         -0.23243852	
          2.69000000	          0.03041028	          9.58171276	         -0.21522676	
          2.70000000	          0.02834194	          9.57970373	         -0.19483617	
          2.71000000	          0.02684821	          9.57669670	         -0.17112872	
          2.72000000	          0.02587149	          9.57273147	         -0.14414418	
          2.73000000	          0.02540899	          9.56776700	         -0.11411149	
          2.74000000	          0.02561729	          9.56169950	         -0.08145896	
          2.75000000	          0.02689580	          9.55440546	         -0.04685534	
          2.76000000	          0.02987826	          9.54580115	         -0.01119198	
          2.77000000	          0.03522099	          9.53591232	          0.02456975	
          2.78000000	          0.04335693	          9.52490824	          0.05955290	
          2.79000000	          0.05502951	          9.51294744	          0.09272139	
          2.80000000	          0.07124673	          9.50013870	          0.12315377	
          2.81000000	          0.09151480	          9.48690710	          0.15083144	
          2.82000000	          0.11611641	          9.47349864	          0.17544101	
          2.83000000	          0.14498344	          9.46023580	          0.19692151	
          2.84000000	          0.17760738	          9.44750364	          0.21556587	
          2.85000000	          0.21337348	          9.43565329	          0.23187605	
          2.86000000	          0.25170137	          9.42495087	          0.24648906	
          2.87000000	          0.29207573	          9.41556423	          0.26010787	
          2.88000000	          0.33402472	          9.40758550	          0.27339664	
          2.89000000	          0.37707816	          9.40107296	          0.28686789	
          2.90000000	          0.42075937	          9.39608672	          0.30078938	
          2.91000000	          0.46470149	          9.39269038	          0.31511585	
          2.92000000	          0.50858736	          9.39097738	          0.32948383	
          2.93000000	          0.55206352	          9.39108430	          0.34327390	
          2.94000000	          0.59494637	          9.39313307	          0.35568094	
          2.95000000	          0.63705253	          9.39723708	          0.36583025	
          2.96000000	          0.67813004	          9.40348472	          0.37287926	
          2.97000000	          0.71782539	          9.41189711	          0.37612977	
          2.98000000	          0.75564893	          9.42239354	          0.37513046	
          2.99000000	          0.79097577	          9.43477474	          0.36974709	
          3.00000000	          0.82310754	          9.44875575	          0.36012570	
          3.01000000	          0.85135886	          9.46398853	          0.34662565	
          3.02000000	          0.87517510	          9.48012573	          0.32976276	
          3.03000000	          0.89419491	          9.49688343	          0.31013183	
          3.04000000	          0.90819845	          9.51391049	          0.28833989	
          3.05000000	          0.91711260	          9.53089535	          0.26503853	
          3.06000000	          0.92096314	          9.54751461	          0.24091916	
          3.07000000	          0.91989156	          9.56346240	          0.21667812	
          3.08000000	          0.91418557	          9.57845497	          0.19295318	
          3.09000000	          0.90432156	          9.59228867	          0.17028161	
          3.10000000	          0.89096073	          9.60487397	          0.14906519	
          3.11000000	          0.87487392	          9.61624013	          0.12955280	
          3.12000000	          0.85682593	          9.62652033	          0.11182011	
          3.13000000	          0.83746941	          9.63591654	          0.09576938	
          3.14000000	          0.81726997	          9.64466708	          0.08116164	
          3.15000000	          0.79650330	          9.65299221	          0.06764465	
          3.16000000	          0.77528272	          9.66106632	          0.05481597	
          3.17000000	          0.75360272	          9.66898380	          0.04232504	
          3.18000000	          0.73137150	          9.67676185	          0.02992340	
          3.19000000	          0.70855780	          9.68436586	          0.01743231	
          3.20000000	          0.68518545	          9.69171243	          0.00478029	
          3.21000000	          0.66131350	          9.69870839	         -0.00789680	
          3.22000000	          0.63714465	          9.70525606	         -0.02053658	
          3.23000000	          0.61296051	          9.71129894	         -0.03311233	
          3.24000000	          0.58906739	          9.71680457	         -0.04565455	
          3.25000000	          0.56579929	          9.72178096	         -0.05825483	
          3.26000000	          0.54347061	          9.72627011	         -0.07102667	
          3.27000000	          0.52235437	          9.73034110	         -0.08404112	
          3.28000000	          0.50264196	          9.73408397	         -0.09724395	
          3.29000000	          0.48441579	          9.73760658	         -0.11041885	
          3.30000000	          0.46763475	          9.74102183	         -0.12319423	
          3.31000000	          0.45211471	          9.74442349	         -0.13503389	
          3.32000000	          0.43759684	          9.74786841	         -0.14531697	
          3.33000000	          0.42373550	          9.75138764	         -0.15341716	
          3.34000000	          0.41015352	          9.75496906	         -0.15872644	
          3.35000000	          0.39648065	          9.75856823	         -0.16071188	
